<svg width="26" height="19" viewBox="0 0 26 19" fill="none" xmlns="http://www.w3.org/2000/svg">
<path fill-rule="evenodd" clip-rule="evenodd" d="M0 2.45312C0 1.6247 0.671573 0.953125 1.5 0.953125H23.9433C24.7718 0.953125 25.4433 1.6247 25.4433 2.45312C25.4433 3.28155 24.7718 3.95312 23.9433 3.95312H1.5C0.671573 3.95312 0 3.28155 0 2.45312ZM0 9.93423C0 9.1058 0.671573 8.43423 1.5 8.43423H23.9433C24.7718 8.43423 25.4433 9.1058 25.4433 9.93423C25.4433 10.7627 24.7718 11.4342 23.9433 11.4342H1.5C0.671573 11.4342 0 10.7627 0 9.93423ZM1.5 15.9153C0.671573 15.9153 0 16.5869 0 17.4153C0 18.2438 0.671573 18.9153 1.5 18.9153H23.9433C24.7718 18.9153 25.4433 18.2438 25.4433 17.4153C25.4433 16.5869 24.7718 15.9153 23.9433 15.9153H1.5Z" fill="#C5CCD9"/>
</svg>
