<svg width="22" height="22" viewBox="0 0 22 22" fill="none" xmlns="http://www.w3.org/2000/svg">
<path fill-rule="evenodd" clip-rule="evenodd" d="M3.1431 0.597032C2.44016 -0.105912 1.30046 -0.105912 0.59752 0.597032C-0.105423 1.29998 -0.105423 2.43967 0.59752 3.14262L8.38982 10.9349L0.59752 18.7272C-0.105423 19.4302 -0.105423 20.5698 0.59752 21.2728C1.30046 21.9757 2.44016 21.9757 3.1431 21.2728L10.9354 13.4805L18.7277 21.2728C19.4306 21.9757 20.5703 21.9757 21.2733 21.2728C21.9762 20.5698 21.9762 19.4301 21.2733 18.7272L13.481 10.9349L21.2733 3.14264C21.9762 2.4397 21.9762 1.3 21.2733 0.597055C20.5703 -0.105889 19.4306 -0.105889 18.7277 0.597054L10.9354 8.38933L3.1431 0.597032Z" fill="#C5CCD9"/>
</svg>
